<?xml version="1.0" standalone="no"?>
<!DOCTYPE svg PUBLIC "-//W3C//DTD SVG 20010904//EN"
 "http://www.w3.org/TR/2001/REC-SVG-20010904/DTD/svg10.dtd">
<svg version="1.0" xmlns="http://www.w3.org/2000/svg"
 width="260.000000pt" height="207.000000pt" viewBox="0 0 260.000000 207.000000"
 preserveAspectRatio="xMidYMid meet">

<g transform="translate(0.000000,207.000000) scale(0.100000,-0.100000)"
fill="#000000" stroke="none">
<path d="M686 1964 c-47 -47 14 -126 70 -90 31 21 39 52 20 81 -19 29 -66 34
-90 9z"/>
<path d="M1850 1699 c-43 -17 -60 -40 -60 -78 0 -51 10 -62 92 -101 65 -31 73
-38 76 -66 2 -19 -3 -38 -13 -48 -22 -21 -89 -21 -126 1 -22 13 -32 14 -40 6
-20 -20 48 -53 109 -53 46 0 58 4 83 29 57 57 33 117 -65 160 -73 33 -91 52
-82 86 12 46 62 52 144 19 6 -3 12 1 12 9 0 8 -18 22 -40 31 -46 18 -55 19
-90 5z"/>
<path d="M1380 1530 l0 -170 95 0 c78 0 95 3 95 15 0 12 -16 15 -80 15 l-80 0
0 65 0 65 65 0 c50 0 65 3 65 15 0 10 -16 15 -62 17 l-63 3 -3 57 -3 57 77 3
c51 2 79 7 82 16 3 9 -20 12 -92 12 l-96 0 0 -170z"/>
<path d="M1660 1530 c0 -144 2 -170 15 -170 13 0 15 26 15 170 0 144 -2 170
-15 170 -13 0 -15 -26 -15 -170z"/>
<path d="M467 1539 c-46 -27 -39 -108 12 -129 33 -13 75 0 90 29 36 67 -37
138 -102 100z"/>
<path d="M997 1492 c-32 -35 -11 -77 35 -70 30 4 38 56 12 75 -23 17 -28 16
-47 -5z"/>
<path d="M46 1318 c-36 -51 -8 -108 52 -108 40 0 62 23 62 65 0 43 -22 65 -65
65 -24 0 -39 -7 -49 -22z"/>
<path d="M603 1243 c-30 -6 -73 -58 -73 -89 0 -89 104 -138 162 -76 35 36 43
73 24 109 -24 47 -61 65 -113 56z"/>
<path d="M839 881 c-62 -62 -20 -171 66 -171 55 0 95 44 95 103 0 38 -5 49
-31 71 -43 36 -91 35 -130 -3z"/>
<path d="M365 835 c-30 -29 -34 -84 -7 -107 81 -72 179 35 102 112 -27 27 -66
25 -95 -5z"/>
<path d="M194 522 c-50 -40 -55 -103 -12 -149 16 -17 33 -23 64 -23 35 0 47 5
69 32 23 27 26 39 22 72 -10 72 -91 111 -143 68z"/>
<path d="M955 355 c-31 -30 -32 -73 -4 -109 45 -57 139 -19 139 56 0 39 -40
78 -80 78 -19 0 -40 -9 -55 -25z"/>
</g>
</svg>
