<svg id="Calque_1" data-name="Calque 1" xmlns="http://www.w3.org/2000/svg" xmlns:xlink="http://www.w3.org/1999/xlink" viewBox="0 0 245.73 189.77"><defs><style>.cls-1{fill:#dbdbdb;}.cls-2{fill:#00569c;}.cls-3{fill:#a8acad;}.cls-4{fill:#004f91;}.cls-5,.cls-6{stroke:#1d4156;stroke-miterlimit:10;}.cls-5{stroke-width:5px;fill:url(#Dégradé_sans_nom_8);}.cls-6{fill:none;stroke-width:4.77px;}.cls-7{font-size:32px;fill:#fff;font-family:Arial-BoldMT, Arial;font-weight:700;}.cls-8{letter-spacing:-0.02em;}.cls-9{fill:#ffd941;}</style><radialGradient id="Dégradé_sans_nom_8" cx="128" cy="94.88" r="76" gradientUnits="userSpaceOnUse"><stop offset="0" stop-color="#0178bc"/><stop offset="1" stop-color="#005894"/></radialGradient></defs><path class="cls-1" d="M43.73,166.2C26,165,0,151.85,0,151.85V125.27L37,141Z" transform="translate(0 -33.12)"/><path class="cls-2" d="M35.64,122.87C0,104,0,100,0,100v34.85A95.81,95.81,0,0,0,38,149" transform="translate(0 -33.12)"/><path class="cls-1" d="M55.94,186C44,186,23,183,23,183l5,16s18.37,5.61,41.68.8" transform="translate(0 -33.12)"/><path class="cls-1" d="M219.35,113.4C233,114,240,116,240,116l5.57,18.85S231,130,220.48,130" transform="translate(0 -33.12)"/><path class="cls-3" d="M220.24,121c15.76,8,25.49,24.25,25.49,24.25L238,167l-20.53-15.44" transform="translate(0 -33.12)"/><path class="cls-4" d="M218.88,145.29C236,158,238,167,238,167l-15,39s-12-19-18.49-26c0,0,11.47-14.11,13.48-28.55S218.88,145.29,218.88,145.29Z" transform="translate(0 -33.12)"/><circle class="cls-5" cx="128" cy="94.88" r="76"/><circle class="cls-6" cx="128" cy="94.88" r="92.5"/><text class="cls-7" transform="translate(88.38 115.11) rotate(-9.55)">EUP<tspan class="cls-8" x="65.8" y="0">L</tspan></text><polygon class="cls-9" points="128 27.18 130.18 33.88 137.23 33.88 131.53 38.03 133.71 44.74 128 40.59 122.29 44.74 124.47 38.03 118.77 33.88 125.82 33.88 128 27.18"/><polygon class="cls-9" points="159 36.18 161.18 42.88 168.23 42.88 162.53 47.03 164.71 53.74 159 49.59 153.29 53.74 155.47 47.03 149.77 42.88 156.82 42.88 159 36.18"/><polygon class="cls-9" points="181 59.18 183.18 65.88 190.23 65.88 184.53 70.03 186.71 76.74 181 72.59 175.29 76.74 177.47 70.03 171.77 65.88 178.82 65.88 181 59.18"/><polygon class="cls-9" points="186 84.18 188.18 90.88 195.23 90.88 189.53 95.03 191.71 101.74 186 97.59 180.29 101.74 182.47 95.03 176.77 90.88 183.82 90.88 186 84.18"/><polygon class="cls-9" points="181 112.18 183.18 118.88 190.23 118.88 184.53 123.03 186.71 129.74 181 125.59 175.29 129.74 177.47 123.03 171.77 118.88 178.82 118.88 181 112.18"/><polygon class="cls-9" points="160 134.18 162.18 140.88 169.23 140.88 163.53 145.03 165.71 151.74 160 147.59 154.29 151.74 156.47 145.03 150.77 140.88 157.82 140.88 160 134.18"/><polygon class="cls-9" points="128 143.18 130.18 149.88 137.23 149.88 131.53 154.03 133.71 160.74 128 156.59 122.29 160.74 124.47 154.03 118.77 149.88 125.82 149.88 128 143.18"/><polygon class="cls-9" points="94 134.18 96.18 140.88 103.23 140.88 97.53 145.03 99.71 151.74 94 147.59 88.29 151.74 90.47 145.03 84.77 140.88 91.82 140.88 94 134.18"/><polygon class="cls-9" points="74 112.18 76.18 118.88 83.23 118.88 77.53 123.03 79.71 129.74 74 125.59 68.29 129.74 70.47 123.03 64.77 118.88 71.82 118.88 74 112.18"/><polygon class="cls-9" points="69 84.18 71.18 90.88 78.23 90.88 72.53 95.03 74.71 101.74 69 97.59 63.29 101.74 65.47 95.03 59.77 90.88 66.82 90.88 69 84.18"/><polygon class="cls-9" points="74 57.18 76.18 63.88 83.23 63.88 77.53 68.03 79.71 74.74 74 70.59 68.29 74.74 70.47 68.03 64.77 63.88 71.82 63.88 74 57.18"/><polygon class="cls-9" points="95 35.18 97.18 41.88 104.23 41.88 98.53 46.03 100.71 52.74 95 48.59 89.29 52.74 91.47 46.03 85.77 41.88 92.82 41.88 95 35.18"/></svg>
